<svg xmlns="http://www.w3.org/2000/svg" height="1em" viewBox="0 0 512 512"><path d="M377.9 105.9L500.7 228.7c7.2 7.2 11.3 17.1 11.3 27.3s-4.1 20.1-11.3 27.3L377.9 406.1c-6.4 6.4-15 9.9-24 9.9c-18.7 0-33.9-15.2-33.9-33.9l0-62.1L32 320c-17.7 0-32-14.3-32-32l0-64c0-17.7 14.3-32 32-32l288 0 0-62.1c0-18.7 15.2-33.9 33.9-33.9c9 0 17.6 3.6 24 9.9zM160 96c17.7 0 32-14.3 32-32V32c0-17.7-14.3-32-32-32H96C43 0 0 43 0 96V416c0 53 43 96 96 96h64c17.7 0 32-14.3 32-32V416c0-17.7-14.3-32-32-32H96c-17.7 0-32-14.3-32-32l0-256c0-17.7 14.3-32 32-32h64z"/></svg>